PathFileType  4	(X/Y/Z) C:\Users\antoi\Documents\MyRepositories\mobilecap\ResultsAnalysis
DataRate	CameraRate	NumFrames	NumMarkers	Units	OrigDataRate	OrigDataStartFrame	OrigNumFrames
100.0	100.0	4	51	mm	100.0	1006	1341
Frame#	Time	r_knee			r_shank_antsup			r_ankle			r_calc			r_5meta			r_toe			L_knee			L_shank_antsup			L_ankle			L_calc			L_5meta			L_toe			r_sh2			r_sh3			r_sh4			L_sh2			L_sh3			r_thigh1			r_thigh2			r_thigh3			r_thigh4			r_thigh5			L_thigh1			L_thigh2			L_thigh3			L_thigh4			r.ASIS			r.PSIS			L.ASIS			L.PSIS			C7			R_Shoulder			L_Shoulder			R_Sternum			L_Sternum			R_humerus			R_elbow_med			R_elbow_lat			R_forearm			R_wrist_radius			R_wrist_ulna			L_humerus			L_elbow_med			L_elbow_lat			L_forearm			L_wrist_radius			L_wrist_ulna			R_HJC			L_HJC			R_HJC_reg			L_HJC_reg			
		X1	Y1	Z1	X2	Y2	Z2	X3	Y3	Z3	X4	Y4	Z4	X5	Y5	Z5	X6	Y6	Z6	X7	Y7	Z7	X8	Y8	Z8	X9	Y9	Z9	X10	Y10	Z10	X11	Y11	Z11	X12	Y12	Z12	X13	Y13	Z13	X14	Y14	Z14	X15	Y15	Z15	X16	Y16	Z16	X17	Y17	Z17	X18	Y18	Z18	X19	Y19	Z19	X20	Y20	Z20	X21	Y21	Z21	X22	Y22	Z22	X23	Y23	Z23	X24	Y24	Z24	X25	Y25	Z25	X26	Y26	Z26	X27	Y27	Z27	X28	Y28	Z28	X29	Y29	Z29	X30	Y30	Z30	X31	Y31	Z31	X32	Y32	Z32	X33	Y33	Z33	X34	Y34	Z34	X35	Y35	Z35	X36	Y36	Z36	X37	Y37	Z37	X38	Y38	Z38	X39	Y39	Z39	X40	Y40	Z40	X41	Y41	Z41	X42	Y42	Z42	X43	Y43	Z43	X44	Y44	Z44	X45	Y45	Z45	X46	Y46	Z46	X47	Y47	Z47	X48	Y48	Z48	X49	Y49	Z49	X50	Y50	Z50	X51	Y51	Z51	

1006	10.05000000	-90.64737	447.59938	-323.80719	-43.25690	392.62080	-329.20774	-253.27378	94.61509	-357.42511	-317.13318	57.79392	-407.77848	-141.18762	39.82358	-311.12470	-97.72795	59.59164	-364.61478	-109.61046	462.67861	-757.06034	-89.65808	384.05282	-792.13164	-248.08069	102.82464	-793.19070	-310.08554	58.07705	-748.66028	-135.27290	41.25405	-834.63093	-90.26563	59.80417	-781.59820	-90.35331	287.05251	-350.62042	-109.54055	412.76963	-296.13445	-153.26790	305.09189	-296.77911	-167.84874	425.05071	-780.29219	-214.57874	312.65228	-795.28472	-238.80534	706.64902	-382.41085	-150.81546	640.68560	-368.00840	-152.82757	612.11982	-306.06818	-284.87458	666.55266	-289.25922	-199.63067	589.98700	-283.04507	-303.05605	695.83288	-680.72177	-213.75988	599.57142	-737.88237	-384.51325	617.20350	-680.58806	-288.21813	520.09679	-702.13126	-276.39168	766.01137	-368.34988	-440.84761	848.82298	-456.13080	-274.16138	723.92346	-596.66689	-436.01805	838.75533	-551.21509	-133.16508	1196.91681	-501.51192	-70.23876	1132.59785	-337.30544	-66.51736	1132.05436	-644.57213	-55.36988	1069.09610	-470.39598	-52.95452	1065.80003	-507.00649	-86.02579	940.19535	-205.51287	-142.74721	826.90806	-206.01301	-98.02342	860.31031	-156.35006	20.02185	886.15224	-228.29663	78.62194	918.35375	-302.81516	102.92823	887.85090	-278.84761	-85.01108	943.77436	-774.97667	-115.64960	816.14131	-755.80191	-93.97435	844.81665	-821.66865	30.67207	885.83977	-754.68497	96.17576	934.29984	-688.57141	114.98003	894.29800	-694.25063	-372.60235	709.46326	-393.51163	-378.48468	691.45427	-583.23937	-367.06698	709.58857	-398.93026	-359.33723	693.47433	-551.11965	
1007	10.06000000	-92.00395	448.34713	-323.95365	-44.68939	393.59623	-329.07765	-253.35962	94.72124	-357.28210	-317.12682	57.80451	-407.77368	-141.18620	39.80163	-311.10973	-97.75401	59.55639	-364.62234	-110.53710	463.08795	-756.89025	-90.34898	384.52830	-792.19681	-248.10374	102.76146	-793.23314	-310.10436	58.05932	-748.71672	-135.29051	41.25145	-834.63427	-90.27735	59.80195	-781.60984	-91.34088	287.82267	-350.28185	-110.93493	413.76321	-295.73064	-154.24433	305.63065	-296.59646	-168.76249	425.21515	-780.28509	-214.63542	313.15978	-795.80738	-236.81941	709.51131	-382.28316	-149.70755	642.36354	-367.80137	-152.30218	614.07711	-305.63785	-283.70418	669.94580	-289.22350	-199.36593	592.18594	-283.04697	-301.38088	698.94094	-681.57382	-213.17446	601.61434	-738.11703	-383.45872	621.07895	-680.32749	-288.24374	522.96046	-702.06183	-274.93285	770.50868	-368.40613	-439.50715	853.27396	-456.31469	-272.42365	728.89728	-597.38669	-434.70903	843.18293	-551.41982	-135.22169	1203.96633	-502.01153	-71.89188	1140.12817	-337.74310	-68.28109	1139.57522	-645.45628	-56.43969	1076.81731	-470.97058	-53.97782	1073.50093	-507.49605	-87.70072	947.43243	-206.03005	-144.69617	834.33695	-206.48760	-99.69646	867.54879	-156.86418	18.27413	892.88693	-228.94213	77.00550	924.85289	-303.54124	101.12795	894.09013	-279.73768	-88.03017	950.44471	-775.14454	-119.88948	823.03852	-755.51913	-97.80654	851.29860	-821.37991	27.19782	890.95655	-754.35520	93.31776	938.79251	-688.29817	111.58416	898.47904	-693.76666	-370.97768	713.79404	-393.99639	-376.75052	696.19097	-583.76558	-365.53114	714.19481	-399.07845	-357.83466	698.00707	-551.64038	
1008	10.07000000	-93.44850	449.19735	-324.07384	-46.18674	394.62814	-329.03131	-253.46434	94.88296	-357.14319	-317.11887	57.81649	-407.76564	-141.17139	39.80797	-311.11276	-97.79604	59.53821	-364.59604	-111.33133	463.80105	-757.00185	-91.20519	385.05840	-792.20698	-248.13961	102.74279	-793.34496	-310.13533	58.04210	-748.80788	-135.30798	41.25068	-834.63887	-90.28851	59.79949	-781.62320	-92.35226	288.68251	-350.01072	-112.49670	414.72337	-295.44508	-155.85886	306.82508	-295.67323	-169.76759	425.35234	-780.11779	-215.23163	313.28175	-795.85623	-234.75572	712.52063	-382.22966	-148.56510	644.13416	-367.68804	-151.70112	615.99632	-305.39119	-282.50557	673.64123	-289.05827	-199.05956	594.43519	-283.12153	-299.79663	702.20436	-683.18558	-212.55119	603.75413	-738.37983	-382.34359	625.17077	-680.14445	-288.31734	525.97918	-701.99026	-273.27991	775.31825	-368.44595	-438.14999	857.88039	-456.57535	-270.61086	733.99447	-597.81724	-433.36867	847.73882	-551.61090	-137.40532	1211.25405	-502.54888	-73.59443	1148.10495	-338.04380	-70.13497	1147.30344	-646.25736	-57.50559	1084.79288	-471.74746	-55.00337	1081.46974	-507.96358	-89.41220	954.96222	-206.53903	-146.67626	841.94741	-207.07414	-101.45566	875.08051	-157.42485	16.51257	899.85014	-229.61340	75.30151	931.56462	-304.36088	99.23114	900.52751	-280.81896	-91.09768	957.31981	-775.24572	-124.21563	830.18020	-755.14320	-101.68061	858.00527	-820.62804	23.64503	896.31987	-754.07344	90.37457	943.42544	-687.96456	108.10000	902.84918	-693.38314	-369.22462	718.41452	-394.31976	-374.89849	700.99304	-584.10886	-363.81021	719.02297	-399.15035	-356.12420	702.71983	-551.92302	
1009	10.08000000	-94.91845	450.24166	-324.11292	-47.69256	395.69263	-328.99360	-253.60580	95.03446	-357.02289	-317.12321	57.83580	-407.75421	-141.16336	39.81796	-311.11315	-97.84169	59.54534	-364.58009	-112.17882	464.76051	-757.08998	-92.23882	385.55733	-791.99498	-248.19845	102.74689	-793.47859	-310.17549	58.03737	-748.91351	-135.30115	41.22768	-834.63902	-90.30633	59.80345	-781.62987	-93.42030	289.52646	-349.85523	-114.12074	415.41914	-295.64747	-157.06745	307.59757	-295.39098	-170.91174	425.58673	-780.04170	-216.11530	313.37254	-795.91502	-232.53164	715.63397	-382.23419	-147.37821	646.07889	-367.54050	-150.98887	617.74605	-305.35019	-281.02552	677.12064	-289.34975	-198.75206	596.81449	-283.29457	-298.00696	705.56105	-684.47768	-211.78013	605.75903	-738.67516	-381.17095	629.42610	-679.90588	-288.51013	528.89295	-701.54084	-271.44135	780.57647	-368.34220	-436.74434	862.61924	-456.77121	-268.70076	739.29917	-597.90417	-431.97459	852.46276	-551.92412	-139.67228	1218.73612	-503.06469	-75.35304	1156.47307	-338.29971	-72.10598	1155.24788	-646.93166	-58.56551	1093.02454	-472.44660	-56.03578	1089.68332	-508.54374	-91.17982	962.75047	-207.00367	-148.63072	849.63772	-207.88644	-103.32092	882.83792	-158.04399	14.72890	907.01280	-230.37091	73.50380	938.45419	-305.23833	97.22658	907.16769	-281.84125	-94.29729	964.34873	-775.27190	-128.63769	837.56046	-754.62959	-105.79688	865.03388	-819.85662	19.95887	901.87124	-753.79034	87.34631	948.20938	-687.71018	104.55702	907.40410	-693.01749	-367.31875	723.39059	-394.42778	-372.84966	705.90095	-584.21491	-361.83614	723.99795	-399.02750	-354.17188	707.67800	-551.91918	
